<svg id="color_line" height="512" viewBox="0 0 74 74" width="512" xmlns="http://www.w3.org/2000/svg" data-name="color line"><path d="m63.85 8.09v57.82a4.02 4.02 0 0 1 -4.02 4.02h-37.38v-65.86h37.38a4.02 4.02 0 0 1 4.02 4.02z" fill="#eeefee"/><path d="m63.85 8.09v57.82a4.017 4.017 0 0 1 -3.41 3.97 3.967 3.967 0 0 0 .08-.78v-57.82a4.02 4.02 0 0 0 -4.02-4.02h-34.05v-3.19h37.38a4.02 4.02 0 0 1 4.02 4.02z" fill="#e1e6e9"/><path d="m22.45 4.07v65.86h-9.72a4.02 4.02 0 0 1 -4.02-4.02v-57.82a4.02 4.02 0 0 1 4.02-4.02z" fill="#9297ab"/><path d="m22.45 4.07v3.06h-9.72a4.02 4.02 0 0 0 -4.02 4.02v-3.06a4.02 4.02 0 0 1 4.02-4.02z" fill="#84879c"/><path d="m12.243 11.086h-7.072a.5.5 0 0 1 0-1h7.072a.5.5 0 0 1 0 1z" fill="#323c6b"/><path d="m12.243 18.633h-7.072a.5.5 0 1 1 0-1h7.072a.5.5 0 0 1 0 1z" fill="#323c6b"/><path d="m12.243 26.18h-7.072a.5.5 0 1 1 0-1h7.072a.5.5 0 1 1 0 1z" fill="#323c6b"/><path d="m12.243 33.727h-7.072a.5.5 0 1 1 0-1h7.072a.5.5 0 1 1 0 1z" fill="#323c6b"/><path d="m12.243 41.273h-7.072a.5.5 0 1 1 0-1h7.072a.5.5 0 1 1 0 1z" fill="#323c6b"/><path d="m12.243 48.82h-7.072a.5.5 0 1 1 0-1h7.072a.5.5 0 1 1 0 1z" fill="#323c6b"/><path d="m12.243 56.367h-7.072a.5.5 0 1 1 0-1h7.072a.5.5 0 1 1 0 1z" fill="#323c6b"/><path d="m12.243 63.914h-7.072a.5.5 0 0 1 0-1h7.072a.5.5 0 0 1 0 1z" fill="#323c6b"/><path d="m63.853 12.864h4.147a1.607 1.607 0 0 1 1.607 1.607v10.929a1.607 1.607 0 0 1 -1.607 1.61h-4.147a0 0 0 0 1 0 0v-14.146a0 0 0 0 1 0 0z" fill="#05afd6"/><path d="m68 27.51h-4.146a.5.5 0 0 1 -.5-.5v-14.147a.5.5 0 0 1 .5-.5h4.146a2.11 2.11 0 0 1 2.106 2.107v10.93a2.11 2.11 0 0 1 -2.106 2.11zm-3.647-1h3.647a1.108 1.108 0 0 0 1.107-1.11v-10.93a1.108 1.108 0 0 0 -1.107-1.107h-3.646z" fill="#323c6b"/><path d="m63.853 27.01h2.789a1.607 1.607 0 0 1 1.607 1.607v10.932a1.607 1.607 0 0 1 -1.607 1.607h-2.789a0 0 0 0 1 0 0v-14.146a0 0 0 0 1 0 0z" fill="#fe7058"/><path d="m66.642 41.656h-2.788a.5.5 0 0 1 -.5-.5v-14.146a.5.5 0 0 1 .5-.5h2.788a2.109 2.109 0 0 1 2.107 2.107v10.932a2.11 2.11 0 0 1 -2.107 2.107zm-2.288-1h2.288a1.109 1.109 0 0 0 1.107-1.107v-10.932a1.108 1.108 0 0 0 -1.107-1.107h-2.288z" fill="#323c6b"/><path d="m63.853 41.156h1.27a1.607 1.607 0 0 1 1.607 1.607v10.937a1.607 1.607 0 0 1 -1.606 1.6h-1.27a0 0 0 0 1 0 0v-14.144a0 0 0 0 1 -.001 0z" fill="#27ccbc"/><path d="m65.124 55.8h-1.27a.5.5 0 0 1 -.5-.5v-14.144a.5.5 0 0 1 .5-.5h1.27a2.109 2.109 0 0 1 2.106 2.107v10.937a2.109 2.109 0 0 1 -2.106 2.1zm-.77-1h.77a1.107 1.107 0 0 0 1.106-1.1v-10.937a1.107 1.107 0 0 0 -1.106-1.107h-.77z" fill="#323c6b"/><path d="m52.47 32.96a12.185 12.185 0 0 1 -18.63 0 7.443 7.443 0 0 1 6.15-5.04 4.278 4.278 0 0 0 6.33 0 7.443 7.443 0 0 1 6.15 5.04z" fill="#fcd462"/><path d="m43.15 37.79a12.641 12.641 0 0 1 -9.693-4.508.5.5 0 0 1 -.086-.5 7.93 7.93 0 0 1 6.552-5.361.5.5 0 0 1 .427.149 3.865 3.865 0 0 0 5.611 0 .5.5 0 0 1 .427-.149 7.925 7.925 0 0 1 6.55 5.361.5.5 0 0 1 -.085.5 12.652 12.652 0 0 1 -9.703 4.508zm-8.735-4.928a11.687 11.687 0 0 0 17.48 0 6.921 6.921 0 0 0 -5.4-4.41 4.863 4.863 0 0 1 -6.676 0 6.922 6.922 0 0 0 -5.404 4.41z" fill="#323c6b"/><path d="m55.37 25.08a12.108 12.108 0 0 1 -2.9 7.88 7.443 7.443 0 0 0 -6.15-5.04 4.278 4.278 0 0 1 -6.33 0 7.443 7.443 0 0 0 -6.15 5.04 12.211 12.211 0 1 1 21.53-7.88z" fill="#9297ab"/><path d="m33.84 33.46a.5.5 0 0 1 -.38-.175 12.715 12.715 0 1 1 19.39 0 .493.493 0 0 1 -.467.167.5.5 0 0 1 -.383-.317 6.961 6.961 0 0 0 -5.508-4.683 4.863 4.863 0 0 1 -6.676 0 6.96 6.96 0 0 0 -5.508 4.683.5.5 0 0 1 -.382.317.44.44 0 0 1 -.086.008zm12.48-6.04a.517.517 0 0 1 .068 0 7.831 7.831 0 0 1 6.212 4.57 11.715 11.715 0 1 0 -18.894 0 7.834 7.834 0 0 1 6.215-4.566.5.5 0 0 1 .427.149 3.865 3.865 0 0 0 5.611 0 .5.5 0 0 1 .361-.153z" fill="#323c6b"/><circle cx="43.153" cy="21.867" fill="#fcd462" r="4.617"/><g fill="#323c6b"><path d="m43.153 26.984a5.117 5.117 0 1 1 5.118-5.117 5.123 5.123 0 0 1 -5.118 5.117zm0-9.234a4.117 4.117 0 1 0 4.118 4.117 4.122 4.122 0 0 0 -4.118-4.117z"/><path d="m57.77 48.456h-29.233a.5.5 0 1 1 0-1h29.233a.5.5 0 0 1 0 1z"/><path d="m57.77 57.535h-29.233a.5.5 0 0 1 0-1h29.233a.5.5 0 1 1 0 1z"/><path d="m52.417 73.333h-9.382a.5.5 0 0 1 0-1h9.382a.5.5 0 0 1 0 1z"/><path d="m40.312 73.333h-1.03a.5.5 0 0 1 0-1h1.03a.5.5 0 0 1 0 1z"/><path d="m54.75 1.667h-.812a.5.5 0 0 1 0-1h.812a.5.5 0 0 1 0 1z"/><path d="m66.255 5.9a.5.5 0 0 1 -.463-.311 6.28 6.28 0 0 0 -5.832-3.922h-2.426a.5.5 0 0 1 0-1h2.426a7.275 7.275 0 0 1 6.758 4.548.5.5 0 0 1 -.463.689z"/><path d="m59.83 70.43h-37.38a.5.5 0 0 1 -.5-.5v-65.86a.5.5 0 0 1 .5-.5h37.38a4.526 4.526 0 0 1 4.52 4.52v57.82a4.526 4.526 0 0 1 -4.52 4.52zm-36.88-1h36.88a3.524 3.524 0 0 0 3.52-3.52v-57.82a3.524 3.524 0 0 0 -3.52-3.52h-36.88z"/><path d="m22.45 70.43h-9.72a4.526 4.526 0 0 1 -4.52-4.52v-57.82a4.526 4.526 0 0 1 4.52-4.52h9.72a.5.5 0 0 1 .5.5v65.86a.5.5 0 0 1 -.5.5zm-9.72-65.86a3.524 3.524 0 0 0 -3.52 3.52v57.82a3.524 3.524 0 0 0 3.52 3.52h9.22v-64.86z"/></g><path d="m19.056 57.035a.65.65 0 0 1 -.65-.65v-.656a.65.65 0 0 1 1.3 0v.656a.65.65 0 0 1 -.65.65z" fill="#fff"/><path d="m19.056 53.765a.65.65 0 0 1 -.65-.65v-8.3a.65.65 0 0 1 1.3 0v8.3a.65.65 0 0 1 -.65.65z" fill="#fff"/></svg>